<mxfile host="app.diagrams.net" agent="Mozilla/5.0 (Windows NT 10.0; Win64; x64) AppleWebKit/537.36 (KHTML, like Gecko) Chrome/134.0.0.0 Safari/537.36" version="26.2.8">
  <diagram name="第 1 页" id="Wi9txF0giXQRNz0Yijz0">
    <mxGraphModel dx="2954" dy="1661" grid="0" gridSize="10" guides="1" tooltips="1" connect="1" arrows="1" fold="1" page="0" pageScale="1" pageWidth="1169" pageHeight="827" math="0" shadow="0">
      <root>
        <mxCell id="0" />
        <mxCell id="1" parent="0" />
        <mxCell id="5-j3a0Fay3BVGRqRBphG-1" value="扩展系统" style="whiteSpace=wrap;strokeWidth=2;" vertex="1" parent="1">
          <mxGeometry x="966" y="149" width="975" height="457" as="geometry" />
        </mxCell>
        <mxCell id="5-j3a0Fay3BVGRqRBphG-2" value="核心处理流程" style="whiteSpace=wrap;strokeWidth=2;" vertex="1" parent="1">
          <mxGeometry x="20" y="20" width="926" height="1671" as="geometry" />
        </mxCell>
        <mxCell id="5-j3a0Fay3BVGRqRBphG-3" value="解析Markdown文本" style="whiteSpace=wrap;strokeWidth=2;" vertex="1" parent="1">
          <mxGeometry x="297" y="45" width="196" height="54" as="geometry" />
        </mxCell>
        <mxCell id="5-j3a0Fay3BVGRqRBphG-4" value="生成AST抽象语法树" style="whiteSpace=wrap;strokeWidth=2;" vertex="1" parent="1">
          <mxGeometry x="296" y="174" width="198" height="54" as="geometry" />
        </mxCell>
        <mxCell id="5-j3a0Fay3BVGRqRBphG-5" value="设计AST节点类型" style="rhombus;strokeWidth=2;whiteSpace=wrap;" vertex="1" parent="1">
          <mxGeometry x="307" y="278" width="176" height="176" as="geometry" />
        </mxCell>
        <mxCell id="5-j3a0Fay3BVGRqRBphG-6" value="TextNode: value" style="whiteSpace=wrap;strokeWidth=2;" vertex="1" parent="1">
          <mxGeometry x="61" y="527" width="176" height="54" as="geometry" />
        </mxCell>
        <mxCell id="5-j3a0Fay3BVGRqRBphG-7" value="HeadingNode: level" style="whiteSpace=wrap;strokeWidth=2;" vertex="1" parent="1">
          <mxGeometry x="287" y="527" width="200" height="54" as="geometry" />
        </mxCell>
        <mxCell id="5-j3a0Fay3BVGRqRBphG-8" value="CodeNode: lang" style="whiteSpace=wrap;strokeWidth=2;" vertex="1" parent="1">
          <mxGeometry x="630" y="527" width="173" height="54" as="geometry" />
        </mxCell>
        <mxCell id="5-j3a0Fay3BVGRqRBphG-9" value="AST转换逻辑" style="whiteSpace=wrap;strokeWidth=2;" vertex="1" parent="1">
          <mxGeometry x="353" y="656" width="150" height="54" as="geometry" />
        </mxCell>
        <mxCell id="5-j3a0Fay3BVGRqRBphG-10" value="遍历AST树" style="whiteSpace=wrap;strokeWidth=2;" vertex="1" parent="1">
          <mxGeometry x="361" y="760" width="134" height="54" as="geometry" />
        </mxCell>
        <mxCell id="5-j3a0Fay3BVGRqRBphG-11" value="节点类型判断" style="rhombus;strokeWidth=2;whiteSpace=wrap;" vertex="1" parent="1">
          <mxGeometry x="408" y="864" width="150" height="150" as="geometry" />
        </mxCell>
        <mxCell id="5-j3a0Fay3BVGRqRBphG-12" value="渲染为&lt;span&gt;&lt;/span&gt;" style="whiteSpace=wrap;strokeWidth=2;" vertex="1" parent="1">
          <mxGeometry x="422" y="1134" width="108" height="54" as="geometry" />
        </mxCell>
        <mxCell id="5-j3a0Fay3BVGRqRBphG-13" value="生成&lt;h1&gt;-&lt;/h1&gt;&lt;h6&gt;&lt;/h6&gt;" style="whiteSpace=wrap;strokeWidth=2;" vertex="1" parent="1">
          <mxGeometry x="735" y="1087" width="92" height="148" as="geometry" />
        </mxCell>
        <mxCell id="5-j3a0Fay3BVGRqRBphG-14" value="调用SyntaxHighlighter" style="whiteSpace=wrap;strokeWidth=2;" vertex="1" parent="1">
          <mxGeometry x="55" y="1134" width="218" height="54" as="geometry" />
        </mxCell>
        <mxCell id="5-j3a0Fay3BVGRqRBphG-15" value="安全内容过滤" style="whiteSpace=wrap;strokeWidth=2;" vertex="1" parent="1">
          <mxGeometry x="413" y="1285" width="156" height="54" as="geometry" />
        </mxCell>
        <mxCell id="5-j3a0Fay3BVGRqRBphG-16" value="危险内容检测" style="rhombus;strokeWidth=2;whiteSpace=wrap;" vertex="1" parent="1">
          <mxGeometry x="646" y="1389" width="150" height="150" as="geometry" />
        </mxCell>
        <mxCell id="5-j3a0Fay3BVGRqRBphG-17" value="输出React组件" style="whiteSpace=wrap;strokeWidth=2;" vertex="1" parent="1">
          <mxGeometry x="69" y="1612" width="164" height="54" as="geometry" />
        </mxCell>
        <mxCell id="5-j3a0Fay3BVGRqRBphG-18" value="过滤/转义处理" style="whiteSpace=wrap;strokeWidth=2;" vertex="1" parent="1">
          <mxGeometry x="746" y="1612" width="164" height="54" as="geometry" />
        </mxCell>
        <mxCell id="5-j3a0Fay3BVGRqRBphG-19" value="插件注册接口" style="whiteSpace=wrap;strokeWidth=2;" vertex="1" parent="1">
          <mxGeometry x="1225" y="174" width="156" height="54" as="geometry" />
        </mxCell>
        <mxCell id="5-j3a0Fay3BVGRqRBphG-20" value="扩展类型" style="rhombus;strokeWidth=2;whiteSpace=wrap;" vertex="1" parent="1">
          <mxGeometry x="1244" y="307" width="118" height="118" as="geometry" />
        </mxCell>
        <mxCell id="5-j3a0Fay3BVGRqRBphG-21" value="修改节点属性" style="whiteSpace=wrap;strokeWidth=2;" vertex="1" parent="1">
          <mxGeometry x="1001" y="527" width="156" height="54" as="geometry" />
        </mxCell>
        <mxCell id="5-j3a0Fay3BVGRqRBphG-22" value="覆盖默认组件" style="whiteSpace=wrap;strokeWidth=2;" vertex="1" parent="1">
          <mxGeometry x="1207" y="527" width="156" height="54" as="geometry" />
        </mxCell>
        <mxCell id="5-j3a0Fay3BVGRqRBphG-23" value="自定义过滤规则" style="whiteSpace=wrap;strokeWidth=2;" vertex="1" parent="1">
          <mxGeometry x="1413" y="527" width="172" height="54" as="geometry" />
        </mxCell>
        <mxCell id="5-j3a0Fay3BVGRqRBphG-24" value="组件映射表" style="whiteSpace=wrap;strokeWidth=2;" vertex="1" parent="1">
          <mxGeometry x="1714" y="174" width="140" height="54" as="geometry" />
        </mxCell>
        <mxCell id="5-j3a0Fay3BVGRqRBphG-25" value="允许覆盖" style="whiteSpace=wrap;strokeWidth=2;" vertex="1" parent="1">
          <mxGeometry x="1722" y="339" width="124" height="54" as="geometry" />
        </mxCell>
        <mxCell id="5-j3a0Fay3BVGRqRBphG-26" value="链接-&amp;gt;" style="whiteSpace=wrap;strokeWidth=2;" vertex="1" parent="1">
          <mxGeometry x="1635" y="527" width="106" height="54" as="geometry" />
        </mxCell>
        <mxCell id="5-j3a0Fay3BVGRqRBphG-27" value="图片-&amp;gt;" style="whiteSpace=wrap;strokeWidth=2;" vertex="1" parent="1">
          <mxGeometry x="1791" y="527" width="106" height="54" as="geometry" />
        </mxCell>
        <mxCell id="5-j3a0Fay3BVGRqRBphG-28" value="最终组件树" style="whiteSpace=wrap;strokeWidth=2;" vertex="1" parent="1">
          <mxGeometry x="651" y="1741" width="140" height="54" as="geometry" />
        </mxCell>
        <mxCell id="5-j3a0Fay3BVGRqRBphG-29" value="" style="curved=1;startArrow=none;endArrow=block;exitX=0.5;exitY=1;entryX=0.5;entryY=0;rounded=0;fontSize=12;startSize=8;endSize=8;" edge="1" parent="1" source="5-j3a0Fay3BVGRqRBphG-3" target="5-j3a0Fay3BVGRqRBphG-4">
          <mxGeometry relative="1" as="geometry">
            <Array as="points" />
          </mxGeometry>
        </mxCell>
        <mxCell id="5-j3a0Fay3BVGRqRBphG-30" value="" style="curved=1;startArrow=none;endArrow=block;exitX=0.5;exitY=1;entryX=0.5;entryY=0;rounded=0;fontSize=12;startSize=8;endSize=8;" edge="1" parent="1" source="5-j3a0Fay3BVGRqRBphG-4" target="5-j3a0Fay3BVGRqRBphG-5">
          <mxGeometry relative="1" as="geometry">
            <Array as="points" />
          </mxGeometry>
        </mxCell>
        <mxCell id="5-j3a0Fay3BVGRqRBphG-31" value="文本节点" style="curved=1;startArrow=none;endArrow=block;exitX=0;exitY=0.75;entryX=0.5;entryY=0;rounded=0;fontSize=12;startSize=8;endSize=8;" edge="1" parent="1" source="5-j3a0Fay3BVGRqRBphG-5" target="5-j3a0Fay3BVGRqRBphG-6">
          <mxGeometry relative="1" as="geometry">
            <Array as="points">
              <mxPoint x="149" y="491" />
            </Array>
          </mxGeometry>
        </mxCell>
        <mxCell id="5-j3a0Fay3BVGRqRBphG-32" value="标题节点" style="curved=1;startArrow=none;endArrow=block;exitX=0.47;exitY=1;entryX=0.5;entryY=0;rounded=0;fontSize=12;startSize=8;endSize=8;" edge="1" parent="1" source="5-j3a0Fay3BVGRqRBphG-5" target="5-j3a0Fay3BVGRqRBphG-7">
          <mxGeometry relative="1" as="geometry">
            <Array as="points">
              <mxPoint x="386" y="491" />
            </Array>
          </mxGeometry>
        </mxCell>
        <mxCell id="5-j3a0Fay3BVGRqRBphG-33" value="代码块节点" style="curved=1;startArrow=none;endArrow=block;exitX=1;exitY=0.7;entryX=0.5;entryY=0;rounded=0;fontSize=12;startSize=8;endSize=8;" edge="1" parent="1" source="5-j3a0Fay3BVGRqRBphG-5" target="5-j3a0Fay3BVGRqRBphG-8">
          <mxGeometry relative="1" as="geometry">
            <Array as="points">
              <mxPoint x="716" y="491" />
            </Array>
          </mxGeometry>
        </mxCell>
        <mxCell id="5-j3a0Fay3BVGRqRBphG-34" value="" style="curved=1;startArrow=none;endArrow=block;exitX=0.5;exitY=1;entryX=0;entryY=0.24;rounded=0;fontSize=12;startSize=8;endSize=8;" edge="1" parent="1" source="5-j3a0Fay3BVGRqRBphG-6" target="5-j3a0Fay3BVGRqRBphG-9">
          <mxGeometry relative="1" as="geometry">
            <Array as="points">
              <mxPoint x="149" y="631" />
            </Array>
          </mxGeometry>
        </mxCell>
        <mxCell id="5-j3a0Fay3BVGRqRBphG-35" value="" style="curved=1;startArrow=none;endArrow=block;exitX=0.5;exitY=1;entryX=0.36;entryY=0;rounded=0;fontSize=12;startSize=8;endSize=8;" edge="1" parent="1" source="5-j3a0Fay3BVGRqRBphG-7" target="5-j3a0Fay3BVGRqRBphG-9">
          <mxGeometry relative="1" as="geometry">
            <Array as="points">
              <mxPoint x="386" y="631" />
            </Array>
          </mxGeometry>
        </mxCell>
        <mxCell id="5-j3a0Fay3BVGRqRBphG-36" value="" style="curved=1;startArrow=none;endArrow=block;exitX=0.5;exitY=1;entryX=1;entryY=0.25;rounded=0;fontSize=12;startSize=8;endSize=8;" edge="1" parent="1" source="5-j3a0Fay3BVGRqRBphG-8" target="5-j3a0Fay3BVGRqRBphG-9">
          <mxGeometry relative="1" as="geometry">
            <Array as="points">
              <mxPoint x="716" y="631" />
            </Array>
          </mxGeometry>
        </mxCell>
        <mxCell id="5-j3a0Fay3BVGRqRBphG-37" value="" style="curved=1;startArrow=none;endArrow=block;exitX=0.5;exitY=1;entryX=0.5;entryY=0;rounded=0;fontSize=12;startSize=8;endSize=8;" edge="1" parent="1" source="5-j3a0Fay3BVGRqRBphG-9" target="5-j3a0Fay3BVGRqRBphG-10">
          <mxGeometry relative="1" as="geometry">
            <Array as="points" />
          </mxGeometry>
        </mxCell>
        <mxCell id="5-j3a0Fay3BVGRqRBphG-38" value="" style="curved=1;startArrow=none;endArrow=block;exitX=0.5;exitY=1;entryX=0.23;entryY=0;rounded=0;fontSize=12;startSize=8;endSize=8;" edge="1" parent="1" source="5-j3a0Fay3BVGRqRBphG-10" target="5-j3a0Fay3BVGRqRBphG-11">
          <mxGeometry relative="1" as="geometry">
            <Array as="points">
              <mxPoint x="428" y="839" />
            </Array>
          </mxGeometry>
        </mxCell>
        <mxCell id="5-j3a0Fay3BVGRqRBphG-39" value="文本节点" style="curved=1;startArrow=none;endArrow=block;exitX=0.47;exitY=1;entryX=0.5;entryY=0;rounded=0;fontSize=12;startSize=8;endSize=8;" edge="1" parent="1" source="5-j3a0Fay3BVGRqRBphG-11" target="5-j3a0Fay3BVGRqRBphG-12">
          <mxGeometry relative="1" as="geometry">
            <Array as="points">
              <mxPoint x="476" y="1050" />
            </Array>
          </mxGeometry>
        </mxCell>
        <mxCell id="5-j3a0Fay3BVGRqRBphG-40" value="标题节点" style="curved=1;startArrow=none;endArrow=block;exitX=1;exitY=0.69;entryX=0.5;entryY=0;rounded=0;fontSize=12;startSize=8;endSize=8;" edge="1" parent="1" source="5-j3a0Fay3BVGRqRBphG-11" target="5-j3a0Fay3BVGRqRBphG-13">
          <mxGeometry relative="1" as="geometry">
            <Array as="points">
              <mxPoint x="781" y="1050" />
            </Array>
          </mxGeometry>
        </mxCell>
        <mxCell id="5-j3a0Fay3BVGRqRBphG-41" value="代码块" style="curved=1;startArrow=none;endArrow=block;exitX=0;exitY=0.68;entryX=0.5;entryY=0;rounded=0;fontSize=12;startSize=8;endSize=8;" edge="1" parent="1" source="5-j3a0Fay3BVGRqRBphG-11" target="5-j3a0Fay3BVGRqRBphG-14">
          <mxGeometry relative="1" as="geometry">
            <Array as="points">
              <mxPoint x="164" y="1050" />
            </Array>
          </mxGeometry>
        </mxCell>
        <mxCell id="5-j3a0Fay3BVGRqRBphG-42" value="" style="curved=1;startArrow=none;endArrow=block;exitX=0.5;exitY=1;entryX=0;entryY=0.27;rounded=0;fontSize=12;startSize=8;endSize=8;" edge="1" parent="1" source="5-j3a0Fay3BVGRqRBphG-14" target="5-j3a0Fay3BVGRqRBphG-15">
          <mxGeometry relative="1" as="geometry">
            <Array as="points">
              <mxPoint x="164" y="1260" />
            </Array>
          </mxGeometry>
        </mxCell>
        <mxCell id="5-j3a0Fay3BVGRqRBphG-43" value="" style="curved=1;startArrow=none;endArrow=block;exitX=0.5;exitY=1;entryX=0.45;entryY=0;rounded=0;fontSize=12;startSize=8;endSize=8;" edge="1" parent="1" source="5-j3a0Fay3BVGRqRBphG-12" target="5-j3a0Fay3BVGRqRBphG-15">
          <mxGeometry relative="1" as="geometry">
            <Array as="points">
              <mxPoint x="476" y="1260" />
            </Array>
          </mxGeometry>
        </mxCell>
        <mxCell id="5-j3a0Fay3BVGRqRBphG-44" value="" style="curved=1;startArrow=none;endArrow=block;exitX=0.5;exitY=1;entryX=1;entryY=0.24;rounded=0;fontSize=12;startSize=8;endSize=8;" edge="1" parent="1" source="5-j3a0Fay3BVGRqRBphG-13" target="5-j3a0Fay3BVGRqRBphG-15">
          <mxGeometry relative="1" as="geometry">
            <Array as="points">
              <mxPoint x="781" y="1260" />
            </Array>
          </mxGeometry>
        </mxCell>
        <mxCell id="5-j3a0Fay3BVGRqRBphG-45" value="" style="curved=1;startArrow=none;endArrow=block;exitX=0.5;exitY=1;entryX=0;entryY=0.28;rounded=0;fontSize=12;startSize=8;endSize=8;" edge="1" parent="1" source="5-j3a0Fay3BVGRqRBphG-15" target="5-j3a0Fay3BVGRqRBphG-16">
          <mxGeometry relative="1" as="geometry">
            <Array as="points">
              <mxPoint x="491" y="1364" />
            </Array>
          </mxGeometry>
        </mxCell>
        <mxCell id="5-j3a0Fay3BVGRqRBphG-46" value="安全" style="curved=1;startArrow=none;endArrow=block;exitX=0;exitY=0.6;entryX=0.5;entryY=0;rounded=0;fontSize=12;startSize=8;endSize=8;" edge="1" parent="1" source="5-j3a0Fay3BVGRqRBphG-16" target="5-j3a0Fay3BVGRqRBphG-17">
          <mxGeometry relative="1" as="geometry">
            <Array as="points">
              <mxPoint x="151" y="1576" />
            </Array>
          </mxGeometry>
        </mxCell>
        <mxCell id="5-j3a0Fay3BVGRqRBphG-47" value="危险" style="curved=1;startArrow=none;endArrow=block;exitX=0.98;exitY=1;entryX=0.5;entryY=0;rounded=0;fontSize=12;startSize=8;endSize=8;" edge="1" parent="1" source="5-j3a0Fay3BVGRqRBphG-16" target="5-j3a0Fay3BVGRqRBphG-18">
          <mxGeometry relative="1" as="geometry">
            <Array as="points">
              <mxPoint x="828" y="1576" />
            </Array>
          </mxGeometry>
        </mxCell>
        <mxCell id="5-j3a0Fay3BVGRqRBphG-48" value="" style="curved=1;startArrow=none;endArrow=block;exitX=0.5;exitY=1;entryX=0.5;entryY=0;rounded=0;fontSize=12;startSize=8;endSize=8;" edge="1" parent="1" source="5-j3a0Fay3BVGRqRBphG-19" target="5-j3a0Fay3BVGRqRBphG-20">
          <mxGeometry relative="1" as="geometry">
            <Array as="points" />
          </mxGeometry>
        </mxCell>
        <mxCell id="5-j3a0Fay3BVGRqRBphG-49" value="AST转换插件" style="curved=1;startArrow=none;endArrow=block;exitX=0;exitY=0.78;entryX=0.5;entryY=0;rounded=0;fontSize=12;startSize=8;endSize=8;" edge="1" parent="1" source="5-j3a0Fay3BVGRqRBphG-20" target="5-j3a0Fay3BVGRqRBphG-21">
          <mxGeometry relative="1" as="geometry">
            <Array as="points">
              <mxPoint x="1079" y="491" />
            </Array>
          </mxGeometry>
        </mxCell>
        <mxCell id="5-j3a0Fay3BVGRqRBphG-50" value="渲染组件插件" style="curved=1;startArrow=none;endArrow=block;exitX=0.42;exitY=1;entryX=0.5;entryY=0;rounded=0;fontSize=12;startSize=8;endSize=8;" edge="1" parent="1" source="5-j3a0Fay3BVGRqRBphG-20" target="5-j3a0Fay3BVGRqRBphG-22">
          <mxGeometry relative="1" as="geometry">
            <Array as="points">
              <mxPoint x="1285" y="491" />
            </Array>
          </mxGeometry>
        </mxCell>
        <mxCell id="5-j3a0Fay3BVGRqRBphG-51" value="安全策略插件" style="curved=1;startArrow=none;endArrow=block;exitX=1;exitY=0.82;entryX=0.5;entryY=0;rounded=0;fontSize=12;startSize=8;endSize=8;" edge="1" parent="1" source="5-j3a0Fay3BVGRqRBphG-20" target="5-j3a0Fay3BVGRqRBphG-23">
          <mxGeometry relative="1" as="geometry">
            <Array as="points">
              <mxPoint x="1499" y="491" />
            </Array>
          </mxGeometry>
        </mxCell>
        <mxCell id="5-j3a0Fay3BVGRqRBphG-52" value="" style="curved=1;startArrow=none;endArrow=block;exitX=0.5;exitY=1;entryX=0.5;entryY=0;rounded=0;fontSize=12;startSize=8;endSize=8;" edge="1" parent="1" source="5-j3a0Fay3BVGRqRBphG-24" target="5-j3a0Fay3BVGRqRBphG-25">
          <mxGeometry relative="1" as="geometry">
            <Array as="points" />
          </mxGeometry>
        </mxCell>
        <mxCell id="5-j3a0Fay3BVGRqRBphG-53" value="" style="curved=1;startArrow=none;endArrow=block;exitX=0.33;exitY=1;entryX=0.5;entryY=0;rounded=0;fontSize=12;startSize=8;endSize=8;" edge="1" parent="1" source="5-j3a0Fay3BVGRqRBphG-25" target="5-j3a0Fay3BVGRqRBphG-26">
          <mxGeometry relative="1" as="geometry">
            <Array as="points">
              <mxPoint x="1688" y="491" />
            </Array>
          </mxGeometry>
        </mxCell>
        <mxCell id="5-j3a0Fay3BVGRqRBphG-54" value="" style="curved=1;startArrow=none;endArrow=block;exitX=0.6;exitY=1;entryX=0.5;entryY=0;rounded=0;fontSize=12;startSize=8;endSize=8;" edge="1" parent="1" source="5-j3a0Fay3BVGRqRBphG-25" target="5-j3a0Fay3BVGRqRBphG-27">
          <mxGeometry relative="1" as="geometry">
            <Array as="points">
              <mxPoint x="1844" y="491" />
            </Array>
          </mxGeometry>
        </mxCell>
        <mxCell id="5-j3a0Fay3BVGRqRBphG-55" value="" style="curved=1;startArrow=none;endArrow=block;exitX=0.5;exitY=1;entryX=0;entryY=0.38;rounded=0;fontSize=12;startSize=8;endSize=8;" edge="1" parent="1" source="5-j3a0Fay3BVGRqRBphG-17" target="5-j3a0Fay3BVGRqRBphG-28">
          <mxGeometry relative="1" as="geometry">
            <Array as="points">
              <mxPoint x="151" y="1716" />
            </Array>
          </mxGeometry>
        </mxCell>
        <mxCell id="5-j3a0Fay3BVGRqRBphG-56" value="" style="curved=1;startArrow=none;endArrow=block;exitX=0.5;exitY=1;entryX=0.9;entryY=0;rounded=0;fontSize=12;startSize=8;endSize=8;" edge="1" parent="1" source="5-j3a0Fay3BVGRqRBphG-18" target="5-j3a0Fay3BVGRqRBphG-28">
          <mxGeometry relative="1" as="geometry">
            <Array as="points">
              <mxPoint x="828" y="1716" />
            </Array>
          </mxGeometry>
        </mxCell>
        <mxCell id="5-j3a0Fay3BVGRqRBphG-57" value="" style="curved=1;startArrow=none;endArrow=block;exitX=0.5;exitY=1;entryX=1;entryY=0.28;rounded=0;fontSize=12;startSize=8;endSize=8;" edge="1" parent="1" source="5-j3a0Fay3BVGRqRBphG-21" target="5-j3a0Fay3BVGRqRBphG-9">
          <mxGeometry relative="1" as="geometry">
            <Array as="points">
              <mxPoint x="1079" y="606" />
              <mxPoint x="757" y="631" />
            </Array>
          </mxGeometry>
        </mxCell>
        <mxCell id="5-j3a0Fay3BVGRqRBphG-58" value="" style="curved=1;startArrow=none;endArrow=block;exitX=0.5;exitY=1;entryX=1;entryY=0.35;rounded=0;fontSize=12;startSize=8;endSize=8;" edge="1" parent="1" source="5-j3a0Fay3BVGRqRBphG-22" target="5-j3a0Fay3BVGRqRBphG-11">
          <mxGeometry relative="1" as="geometry">
            <Array as="points">
              <mxPoint x="1285" y="606" />
              <mxPoint x="812" y="631" />
              <mxPoint x="812" y="839" />
            </Array>
          </mxGeometry>
        </mxCell>
        <mxCell id="5-j3a0Fay3BVGRqRBphG-59" value="" style="curved=1;startArrow=none;endArrow=block;exitX=0.5;exitY=1;entryX=1;entryY=0.18;rounded=0;fontSize=12;startSize=8;endSize=8;" edge="1" parent="1" source="5-j3a0Fay3BVGRqRBphG-23" target="5-j3a0Fay3BVGRqRBphG-16">
          <mxGeometry relative="1" as="geometry">
            <Array as="points">
              <mxPoint x="1499" y="606" />
              <mxPoint x="877" y="631" />
              <mxPoint x="877" y="1364" />
            </Array>
          </mxGeometry>
        </mxCell>
      </root>
    </mxGraphModel>
  </diagram>
</mxfile>
